<?xml version="1.0" encoding="utf-8"?>
<!-- Generator: Adobe Illustrator 16.0.0, SVG Export Plug-In . SVG Version: 6.00 Build 0)  -->
<!DOCTYPE svg PUBLIC "-//W3C//DTD SVG 1.1//EN" "http://www.w3.org/Graphics/SVG/1.1/DTD/svg11.dtd">
<svg version="1.1" id="Capa_1" xmlns="http://www.w3.org/2000/svg" xmlns:xlink="http://www.w3.org/1999/xlink" x="0px" y="0px"
	 width="556.947px" height="198.663px" viewBox="0 0 556.947 198.663" enable-background="new 0 0 556.947 198.663"
	 xml:space="preserve">
<g>
	<g>
		<path fill-rule="evenodd" clip-rule="evenodd" fill="#FFFFFF" d="M153.118,78.627c8.212,8.284,13.12,18.131,15.251,29.241
			c1.292,6.732,1.232,13.598,0.353,20.482c-0.984,7.712-3.5,14.816-7.374,21.455c-4.453,7.63-10.544,13.655-18.335,17.921
			c-6.334,3.469-13.047,5.538-20.263,6.27c-2.97,0.302-5.915,0.436-8.877,0.443c-11.524,0.026-23.049,0.011-34.574,0.011
			c-1.006,0-2.014,0-3.275,0c0-8.093,0-15.962,0-23.993c-14.222,0-28.179,0-42.087,0c-0.729-2.535-1.046-129.873-0.397-140.428
			c0.568-0.647,1.337-0.373,2.016-0.373c17.39,0,34.785-0.24,52.167,0.114c15.171,0.308,29.055,5.001,40.85,14.752
			c9.059,7.489,15.585,16.934,19.623,28.019c2.302,6.322,3.939,12.787,4.457,19.541C152.813,74.207,153.141,76.331,153.118,78.627z
			 M130.539,66.352c-0.069-0.793-0.02-1.32-0.169-1.783c-2.082-6.436-4.906-12.526-9.321-17.694
			c-9.134-10.694-20.893-16.041-34.892-16.314c-9.672-0.189-19.349-0.084-29.024-0.087c-0.891,0-1.83-0.232-2.72,0.271
			c0,32.891,0,65.752,0,98.651c7.24,0,14.292,0,21.581,0c0-21.59,0-43.051,0-64.281c0.658-0.669,1.202-0.485,1.688-0.485
			c13.381-0.012,26.762-0.01,40.142-0.008C122.021,64.621,126.121,65.346,130.539,66.352z M92.149,80.648c0,16.271,0,32.166,0,48.07
			c21.67-2.004,39.074-21.468,39.974-44.297c-1.048-0.441-2.152-0.924-3.27-1.372c-4.313-1.727-8.915-2.142-13.444-2.319
			C107.732,80.431,100.035,80.648,92.149,80.648z M149.818,103.411c-9.661,27.588-28.727,43.288-57.664,46.632
			c0,2.666,0,5.197,0,7.579c0.457,0.502,0.892,0.374,1.277,0.375c7.814,0.01,15.628-0.035,23.442,0.031
			c2.788,0.023,5.571-0.247,8.208-0.922c10.697-2.737,18.906-8.809,23.841-18.861c4.172-8.497,5.359-17.479,3.609-26.758
			C152.019,108.773,151.429,105.959,149.818,103.411z"/>
		<path fill-rule="evenodd" clip-rule="evenodd" fill="#FFFFFF" d="M512.672,104.738c-14.579,0.485-28.597-12.473-28.199-29.02
			c0.395-16.445,13.987-28.87,29.528-28.493c14.843,0.359,28.453,13.425,27.78,30.107C541.227,91.09,529.44,105.514,512.672,104.738
			z M493.366,75.912c-0.569,10.802,9.236,20.262,19.689,20.351c10.241,0.086,20.127-9.027,20.159-20.097
			c0.032-11.265-9.616-20.209-19.909-20.348C503.056,55.68,492.873,65.014,493.366,75.912z"/>
		<path fill-rule="evenodd" clip-rule="evenodd" fill="#FFFFFF" d="M372.483,75.873c-0.566-14.789,12.574-29.112,29.034-28.599
			c16.428,0.512,28.215,13.281,28.105,28.901c-0.118,16.898-13.443,28.725-29.103,28.667
			C385.037,104.785,371.793,91.105,372.483,75.873z M420.822,76.181c0.538-11.042-9.026-20.141-19.687-20.324
			c-11.287-0.193-20.07,10.202-20.207,20.07c-0.145,10.498,9.824,20.439,19.959,20.337
			C411.623,96.156,421.276,86.851,420.822,76.181z"/>
		<path fill-rule="evenodd" clip-rule="evenodd" fill="#FFFFFF" d="M434.351,104.08c0-18.819,0-37.228,0-55.617
			c0.674-0.764,1.552-0.453,2.329-0.456c6.174-0.026,12.349-0.049,18.522-0.004c7.339,0.054,13.956,2.439,19.064,7.622
			c3.454,3.505,6.019,7.825,6.99,12.962c0.437,2.313,0.887,4.716,0.877,6.941c-0.026,6.585-1.497,12.969-5.586,18.346
			c-3.766,4.951-8.799,8.125-14.902,9.561c-2.012,0.474-4.028,0.657-6.084,0.652C448.583,104.07,441.605,104.08,434.351,104.08z
			 M443.002,95.49c5.111,0,9.851,0.32,14.526-0.091c4.554-0.4,8.347-2.636,11.456-6.198c3.368-3.857,4.408-8.442,4.709-13.234
			c0.129-2.047-0.058-4.372-1.195-6.209c-1.167-1.885-2.205-3.858-3.283-5.772c-1.502-2.666-3.573-4.393-6.215-5.57
			c-2.608-1.162-5.335-1.941-8.248-1.907c-3.186,0.039-6.372-0.012-9.559,0.024c-0.779,0.009-1.65-0.306-2.191,0.277
			C443.002,69.657,443.002,82.368,443.002,95.49z"/>
		<path fill-rule="evenodd" clip-rule="evenodd" fill="#FFFFFF" d="M220.392,104.026c-2.972,0-5.53,0-8.299,0
			c0-18.594,0-37.151,0-55.896c2.016,0,4.122,0,6.379,0c8.722,12.597,17.5,25.275,26.71,38.578c0-13.305,0-25.918,0-38.647
			c2.76,0,5.199,0,7.655,0c0.641,2.359,0.908,43.077,0.34,55.776c-1.959,0.558-4.003,0.086-6.207,0.273
			c-1.941-1.826-3.216-4.271-4.76-6.498c-6.89-9.944-13.743-19.915-20.615-29.872c-0.233-0.338-0.508-0.66-1.203-0.547
			C220.392,79.328,220.392,91.534,220.392,104.026z"/>
		<path fill-rule="evenodd" clip-rule="evenodd" fill="#FFFFFF" d="M208.522,48.179c0,2.72,0,5.351,0,8.284
			c-8.535,0-17.014,0-25.619,0c0,5.285,0,10.269,0,15.55c8.353,0,16.63,0,25.014,0c0,2.926,0,5.555,0,8.365
			c-8.301,0-16.502,0-25.058,0c-0.166,2.577-0.067,5.012-0.083,7.438c-0.017,2.456-0.003,4.912-0.003,7.664
			c8.621,0,17.101,0,25.726,0c0,2.924,0,5.555,0,8.395c-11.337,0-22.684,0-34.163,0c0-18.53,0-37.019,0-55.697
			C185.694,48.179,197.044,48.179,208.522,48.179z"/>
		<path fill-rule="evenodd" clip-rule="evenodd" fill="#FFFFFF" d="M329.123,48.193c0,2.807,0,5.443,0,8.291
			c-3.266,0-6.412,0-9.731,0c0,13.02,0,25.826,0,38.961c3.102,0,6.332,0,9.705,0c0,2.956,0,5.591,0,8.432c-9.44,0-18.945,0-28.649,0
			c-0.391-2.623-0.131-5.332-0.174-8.203c3.486,0,6.749,0,10.227,0c0-13.052,0-25.943,0-39.109c-3.283,0-6.62,0-10.097,0
			c0-2.9,0-5.533,0-8.372C309.875,48.193,319.377,48.193,329.123,48.193z"/>
		<path fill-rule="evenodd" clip-rule="evenodd" fill="#FFFFFF" d="M297.622,48.091c0,2.735,0,5.377,0,8.259
			c-5.358,0-10.761,0-16.463,0c0,16.119,0,32.003,0,48.042c-2.919,0.359-5.561,0.134-8.614,0.172
			c-0.095-15.941-0.005-31.822-0.052-47.949c-5.535,0-10.939,0-16.497,0c-0.403-2.948-0.15-5.663-0.206-8.525
			C269.834,48.091,283.664,48.091,297.622,48.091z"/>
		<path fill-rule="evenodd" clip-rule="evenodd" fill="#FFFFFF" d="M348.56,56.55c-5.742,0-11.067,0-16.548,0
			c-0.518-2.836-0.152-5.557-0.255-8.439c14.014,0,27.841,0,41.819,0c0,2.756,0,5.467,0,8.42c-5.525,0-10.927,0-16.512,0
			c0,16.048,0,31.859,0,47.821c-2.891,0.436-5.604,0.146-8.505,0.247C348.56,88.518,348.56,72.709,348.56,56.55z"/>
		<path fill-rule="evenodd" clip-rule="evenodd" fill="#FFFFFF" d="M418.147,125.193c0,6.165,0,12.33,0,18.583
			c-1.574,0.579-3.054,0.286-4.669,0.283c0-10.029,0-19.86,0-29.856c1.146,0,2.242,0,3.728,0
			c4.784,6.062,8.649,13.172,13.927,20.017c0-7.02,0-13.437,0-20.032c8.188,0,16.173,0,24.297,0
			c0.591,1.171,0.188,2.475,0.304,4.081c-3.075,0-5.995,0-9.08,0c0,8.726,0,17.13,0,25.61c-1.632,0.587-3.109,0.151-4.756,0.322
			c0-8.702,0-17.108,0-25.438c-1.104-0.723-2.157-0.364-3.154-0.421c-1.002-0.058-2.011-0.013-3.21-0.013c0,8.631,0,17.03,0,25.359
			c-1.138,0.704-2.175,0.321-3.543,0.443c-4.344-6.25-8.787-12.642-13.229-19.033C418.556,125.128,418.351,125.161,418.147,125.193z
			"/>
		<path fill-rule="evenodd" clip-rule="evenodd" fill="#FFFFFF" d="M240.832,144.231c-8.405,0.287-15.453-6.959-15.215-15.321
			c0.259-9.104,6.646-15.228,15.308-15.255c8.644-0.027,15.146,6.483,15.2,15.368C256.177,137.676,249.313,144.525,240.832,144.231z
			 M240.519,139.434c6.041,0.3,10.703-4.66,10.8-10.142c0.109-6.151-4.208-10.748-10.373-10.845
			c-6.1-0.096-10.388,4.904-10.528,10.45C230.277,134.47,235.107,139.364,240.519,139.434z"/>
		<path fill-rule="evenodd" clip-rule="evenodd" fill="#FFFFFF" d="M334.242,144.231c-8.046,0.283-15.283-6.002-15.262-15.204
			c0.021-8.943,6.301-15.287,15.135-15.374c8.705-0.086,15.346,6.565,15.288,15.559C349.348,137.709,342.61,144.457,334.242,144.231
			z M333.953,139.438c6.292,0.219,10.746-5.18,10.671-10.361c-0.089-6.155-4.338-10.538-10.384-10.628
			c-6.25-0.094-10.526,5.078-10.522,10.492C323.721,134.875,329.209,139.895,333.953,139.438z"/>
		<path fill-rule="evenodd" clip-rule="evenodd" fill="#FFFFFF" d="M366.472,144.116c0-10.157,0-19.902,0-29.922
			c4.548,0,9.034-0.158,13.499,0.075c1.87,0.097,3.718,0.949,5.389,1.979c3.122,1.926,5.053,4.789,5.796,8.254
			c1.28,5.967,0.77,11.58-4.178,16.027c-2.737,2.46-6.074,3.283-9.523,3.53C373.895,144.314,370.303,144.116,366.472,144.116z
			 M371.654,118.86c-0.618,2.129-0.791,14.591-0.264,20.461c1.786,0,3.611,0.037,5.437-0.007c4.759-0.114,8.967-2.767,10.082-8.317
			c1.402-6.971-4.076-12.353-9.4-12.149C375.555,118.923,373.597,118.86,371.654,118.86z"/>
		<path fill-rule="evenodd" clip-rule="evenodd" fill="#FFFFFF" d="M257.672,135.119c1.749,0,3.16,0,4.555,0
			c1.541,5.148,8.071,5.164,11.194,2.89c1.154-0.84,1.751-2.05,1.503-3.482c-0.251-1.456-1.336-2.34-2.676-2.613
			c-1.382-0.282-2.728-0.739-4.2-0.714c-2.372,0.04-4.622-0.655-6.676-1.845c-1.994-1.154-3.186-2.868-3.149-5.249
			c0.022-1.427-0.28-2.899,0.268-4.272c0.771-1.933,1.945-3.468,3.883-4.514c3.292-1.775,6.797-1.737,10.162-0.984
			c2.665,0.597,5.482,2.212,6.449,7.317c-0.173,0.098-0.345,0.274-0.52,0.278c-1.229,0.024-2.459,0.013-3.925,0.013
			c-1.127-2.659-3.547-3.765-6.292-3.528c-2.548,0.22-5.041,1.128-5.678,4.273c0.552,2.788,2.692,3.535,5.171,3.704
			c2.044,0.14,4.02,0.57,5.991,1.071c3.397,0.864,5.56,2.89,6.012,6.46c0.463,3.649-1.098,6.461-4.1,8.296
			c-4.55,2.782-9.316,2.782-13.871,0.003C259.333,140.734,257.857,138.417,257.672,135.119z"/>
		<path fill-rule="evenodd" clip-rule="evenodd" fill="#FFFFFF" d="M189.595,131.191c0,2.959,0,5.401,0,8.075
			c4.468,0,8.845,0,13.389,0c0,1.622,0,3.018,0,4.636c-5.907,0-11.903,0-18.091,0c0-9.776,0-19.591,0-29.614
			c5.903,0,11.895,0,18.042,0c0,1.401,0,2.792,0,4.467c-4.35,0-8.713,0-13.254,0c0,2.665,0,5.055,0,7.694c4.221,0,8.386,0,12.676,0
			c0.402,1.606,0.153,3.02,0.234,4.742C198.28,131.191,194.027,131.191,189.595,131.191z"/>
		<path fill-rule="evenodd" clip-rule="evenodd" fill="#FFFFFF" d="M398.444,131.273c0,2.753,0,5.195,0,7.972
			c4.391,0,8.848,0,13.416,0c0,1.727,0,3.123,0,4.696c-6.045,0-12.044,0-18.189,0c0-9.887,0-19.701,0-29.687
			c5.963,0,11.881,0,17.978,0c0.55,1.342,0.229,2.823,0.22,4.57c-4.521,0-8.885,0-13.366,0c0,2.672,0,5.07,0,7.708
			c4.313,0,8.479,0,12.77,0c0,1.632,0,3.027,0,4.742C407.03,131.273,402.782,131.273,398.444,131.273z"/>
		<path fill-rule="evenodd" clip-rule="evenodd" fill="#FFFFFF" d="M455.456,144.12c-1.791-0.087-3.332,0.178-5.004-0.211
			c3.995-10.112,7.968-20.167,11.938-30.214c1.096-0.244,2.1-0.22,3.393,0.013c4.574,9.717,7.651,20.176,12.509,30.267
			c-2.04,0-3.556,0-5.333,0c-1.525-2.481-2.052-5.659-3.775-8.403c-3.209,0-6.476,0-9.946,0
			C457.588,138.077,456.987,141.228,455.456,144.12z M464.087,121.571c-0.691,3.484-2.812,5.91-2.659,9.256
			c2.04-0.233,3.856,0.226,5.824-0.373C466.446,127.529,465.41,124.808,464.087,121.571z"/>
		<path fill-rule="evenodd" clip-rule="evenodd" fill="#FFFFFF" d="M209.337,134.265c0,3.351,0,6.399,0,9.554
			c-1.63,0.493-3.105,0.256-4.724,0.238c0-10.02,0-19.845,0-30.07c4.662,0.375,9.329-0.62,13.958,0.634
			c3.678,0.996,5.445,3.638,6.268,7.158c0.497,2.126,0.346,4.216-0.356,6.22c-1.456,4.159-4.633,6.042-8.886,6.249
			C213.573,134.346,211.539,134.265,209.337,134.265z M209.363,129.477c2.175,0,4.213,0.086,6.242-0.021
			c2.705-0.144,4.951-2.644,4.924-5.31c-0.026-2.541-2.155-5.038-4.701-5.229c-2.116-0.159-4.253-0.032-6.465-0.032
			C209.363,122.456,209.363,125.727,209.363,129.477z"/>
		<path fill-rule="evenodd" clip-rule="evenodd" fill="#FFFFFF" d="M292.303,139.352c1.814,0,3.429,0,5.199,0
			c0,1.561,0,2.958,0,4.564c-5.038,0-10.134,0-15.426,0c-0.489-1.318-0.159-2.803-0.227-4.574c1.893,0,3.587,0,5.363,0
			c0-6.929,0-13.563,0-20.383c-1.716,0-3.331,0-5.006,0c-0.623-1.625-0.308-3.108-0.322-4.73c5.281,0,10.37,0,15.619,0
			c0,1.465,0,2.856,0,4.418c-1.63,0.508-3.392-0.005-5.201,0.328C292.303,125.689,292.303,132.329,292.303,139.352z"/>
		<path fill-rule="evenodd" clip-rule="evenodd" fill="#FFFFFF" d="M307.291,118.365c-3.159,0-5.812,0-8.517,0
			c-0.725-1.333-0.153-2.659-0.443-3.888c2.377-0.541,18.657-0.655,22.469-0.196c0.48,0.516,0.217,1.162,0.26,1.75
			c0.045,0.606,0.011,1.217,0.011,1.991c-2.947,0.692-5.913,0.026-9.075,0.445c0,8.46,0,16.92,0,25.474
			c-1.642,0.412-3.046,0.197-4.704,0.187C307.291,135.597,307.291,127.129,307.291,118.365z"/>
		<path fill-rule="evenodd" clip-rule="evenodd" fill="#FFFFFF" d="M483.594,114.239c0,8.411,0,16.591,0,24.973
			c4.53,0,8.903,0,13.385,0c0.483,1.649,0.271,3.125,0.178,4.751c-6.038,0-11.956,0-17.893,0
			c-0.566-2.054-0.745-24.861-0.197-29.724C480.432,114.239,481.822,114.239,483.594,114.239z"/>
	</g>
</g>
</svg>
